# xmcd
#
# Track frame offsets:
#	150
#	13722
#	28199
#	42991
#	54597
#	68322
#
# Disc length: 1090 seconds
#
# Revision: 0
# Processed by: cddbd v1.5.2PL0 Copyright (c) Steve Scherf et al.
# Submitted via: audiograbber 1.83.01
#
DISCID=45044006
DTITLE=Die JUNKER - Gemma,gemma,gemma
DYEAR=2012
DGENRE=
TTITLE0=Die JUNKER - Gemma,Gemma,Gemma
TTITLE1=Die JUNKER - Super Mega Wahnsinn
TTITLE2=Die JUNKER - Ich will zurück ins Paradies
TTITLE3=Die JUNKER - Hardrock oder Volksmusik
TTITLE4=Die JUNKER - Für Dich
TTITLE5=Die JUNKER - Ich würd es immer wieder tun
EXTD=Super Jungs aus der Steiermark
EXTT0=
EXTT1=
EXTT2=
EXTT3=
EXTT4=
EXTT5=
PLAYORDER=
